<?xml version="1.0" encoding="UTF-8"?>
<!-- Created with Inkscape (http://www.inkscape.org/) -->
<svg width="20.117mm" height="10.057mm" version="1.1" viewBox="0 0 20.117 10.057" xmlns="http://www.w3.org/2000/svg" xmlns:cc="http://creativecommons.org/ns#" xmlns:dc="http://purl.org/dc/elements/1.1/" xmlns:rdf="http://www.w3.org/1999/02/22-rdf-syntax-ns#">
 <metadata>
  <rdf:RDF>
   <cc:Work rdf:about="">
    <dc:format>image/svg+xml</dc:format>
    <dc:type rdf:resource="http://purl.org/dc/dcmitype/StillImage"/>
    <dc:title/>
   </cc:Work>
  </rdf:RDF>
 </metadata>
 <g transform="translate(-91.735 -104.5)" stroke-width=".26458">
  <path d="m96.757 107.14c-1.3176 0-2.3765 1.066-2.3765 2.3812s1.0589 2.3812 2.3765 2.3812 2.386-1.066 2.386-2.3812-1.0681-2.3812-2.386-2.3812zm0.0048 3.7042c-0.73052 0-1.3229-0.59241-1.3229-1.3229s0.5924-1.3229 1.3229-1.3229c0.73051 0 1.3229 0.59241 1.3229 1.3229s-0.5924 1.3229-1.3229 1.3229z" fill="#ef5350"/>
  <path d="m96.762 104.5h-4.5971c-0.23733 0-0.42995 0.19261-0.42995 0.42994v4.5971c0 2.7763 2.2508 5.0271 5.0271 5.0271s5.0271-2.2508 5.0271-5.0271-2.2508-5.0271-5.0271-5.0271zm0 8.4667c-1.8997 0-3.4396-1.5399-3.4396-3.4396s1.5399-3.4396 3.4396-3.4396 3.4396 1.5399 3.4396 3.4396-1.5399 3.4396-3.4396 3.4396z" fill="#ef5350"/>
  <path d="m106.82 107.14c-1.3176 0-2.3765 1.066-2.3765 2.3812s1.0589 2.3812 2.3765 2.3812c1.3176 0 2.386-1.066 2.386-2.3812s-1.0681-2.3812-2.386-2.3812zm5e-3 3.7042c-0.73051 0-1.3229-0.59241-1.3229-1.3229s0.59241-1.3229 1.3229-1.3229c0.73052 0 1.3229 0.59241 1.3229 1.3229s-0.5924 1.3229-1.3229 1.3229z" fill="#535353"/>
  <path d="m106.82 104.5h-4.5971c-0.23733 0-0.42995 0.19261-0.42995 0.42994v4.5971c0 2.7763 2.2508 5.0271 5.0271 5.0271 2.7763 0 5.0271-2.2508 5.0271-5.0271s-2.2508-5.0271-5.0271-5.0271zm0 8.4667c-1.8997 0-3.4396-1.5399-3.4396-3.4396s1.5399-3.4396 3.4396-3.4396c1.8997 0 3.4396 1.5399 3.4396 3.4396s-1.5399 3.4396-3.4396 3.4396z" fill="#535353"/>
 </g>
</svg>
