<?xml version="1.0" encoding="utf-8"?>
<!-- Generator: Adobe Illustrator 24.0.3, SVG Export Plug-In . SVG Version: 6.00 Build 0)  -->
<svg version="1.1" id="Capa_1" xmlns="http://www.w3.org/2000/svg" xmlns:xlink="http://www.w3.org/1999/xlink" x="0px" y="0px"
	 viewBox="0 0 1245 100" style="enable-background:new 0 0 1245 100;" xml:space="preserve">
<style type="text/css">
	.st0{fill:#1D1D1B;}
</style>
<g>
	<path class="st0" d="M2.1,58.9l2-1.4C5.1,59.2,6.4,60,8,60c2.4,0,3.6-1.4,3.6-4.8V39.7h2.8v15.8c0,3.8-1.8,6.9-6.1,6.9
		C5.4,62.4,3.4,61.2,2.1,58.9z"/>
	<path class="st0" d="M20,56V45.5h2.8v10.1c0,3.1,0.9,4.4,3.1,4.4c1.7,0,2.9-0.8,4.5-2.8V45.5h2.8V62h-2.3l-0.2-2.6h-0.1
		c-1.6,1.8-3.2,3-5.5,3C21.5,62.4,20,60.2,20,56z"/>
	<path class="st0" d="M38.7,45.5H41l0.2,2.4h0.1c1.6-1.6,3.3-2.8,5.5-2.8c3.5,0,5.1,2.3,5.1,6.5V62h-2.8V51.9c0-3.1-0.9-4.4-3.1-4.4
		c-1.7,0-2.9,0.9-4.5,2.5v12h-2.8V45.5z"/>
	<path class="st0" d="M57.8,56.9v-9.2h-2.5v-2.1l2.6-0.2l0.3-4.7h2.3v4.7H65v2.3h-4.5V57c0,2,0.6,3.2,2.6,3.2c0.6,0,1.3-0.2,1.9-0.4
		l0.5,2.1c-0.9,0.3-2,0.6-3,0.6C59,62.4,57.8,60.2,57.8,56.9z"/>
	<path class="st0" d="M67,57.7c0-3.6,3.1-5.4,10.2-6.2c0-2.1-0.7-4.2-3.4-4.2c-1.9,0-3.7,0.9-5,1.8l-1.1-1.9c1.5-1,3.9-2.2,6.5-2.2
		c4,0,5.7,2.7,5.7,6.8V62h-2.3l-0.2-2h-0.1c-1.6,1.3-3.4,2.4-5.5,2.4C69.1,62.4,67,60.7,67,57.7z M77.2,58v-4.6
		c-5.6,0.7-7.5,2-7.5,4.2c0,1.9,1.3,2.7,2.9,2.7C74.3,60.2,75.6,59.4,77.2,58z"/>
	<path class="st0" d="M90.9,53.8c0-5.4,3.4-8.7,7.2-8.7c2,0,3.2,0.7,4.7,2l-0.1-2.9v-6.4h2.7V62h-2.3l-0.2-2h-0.1
		c-1.3,1.3-3,2.3-5,2.3C93.6,62.4,90.9,59.3,90.9,53.8z M102.6,57.8v-8.7c-1.4-1.2-2.7-1.7-4.1-1.7c-2.7,0-4.8,2.6-4.8,6.3
		c0,4,1.6,6.4,4.6,6.4C99.8,60.1,101.2,59.4,102.6,57.8z"/>
	<path class="st0" d="M109.7,53.8c0-5.4,3.6-8.7,7.5-8.7c4.2,0,6.6,3,6.6,7.8c0,0.6-0.1,1.2-0.1,1.6h-11.2c0.2,3.5,2.3,5.8,5.5,5.8
		c1.6,0,2.9-0.5,4.1-1.3l1,1.8c-1.5,0.9-3.2,1.7-5.5,1.7C113.2,62.4,109.7,59.2,109.7,53.8z M121.3,52.4c0-3.3-1.5-5.1-4.1-5.1
		c-2.3,0-4.4,1.9-4.8,5.1H121.3z"/>
	<path class="st0" d="M139.5,39.7h3.1l7.6,22.4h-3l-2.1-6.8H137l-2.2,6.8H132L139.5,39.7z M137.7,53h6.8l-1.1-3.4
		c-0.8-2.5-1.5-5-2.3-7.6H141c-0.7,2.6-1.4,5-2.2,7.6L137.7,53z"/>
	<path class="st0" d="M153.2,45.5h2.3l0.2,2.4h0.1c1.6-1.6,3.3-2.8,5.5-2.8c3.5,0,5.1,2.3,5.1,6.5V62h-2.8V51.9
		c0-3.1-0.9-4.4-3.1-4.4c-1.7,0-2.9,0.9-4.5,2.5v12h-2.8V45.5z"/>
	<path class="st0" d="M170.6,53.8c0-5.4,3.4-8.7,7.2-8.7c2,0,3.2,0.7,4.7,2l-0.1-2.9v-6.4h2.7V62h-2.3l-0.2-2h-0.1
		c-1.3,1.3-3,2.3-5,2.3C173.3,62.4,170.6,59.3,170.6,53.8z M182.3,57.8v-8.7c-1.4-1.2-2.7-1.7-4.1-1.7c-2.7,0-4.8,2.6-4.8,6.3
		c0,4,1.6,6.4,4.6,6.4C179.6,60.1,180.9,59.4,182.3,57.8z"/>
	<path class="st0" d="M189.6,57.7c0-3.6,3.1-5.4,10.2-6.2c0-2.1-0.7-4.2-3.4-4.2c-1.9,0-3.7,0.9-5,1.8l-1.1-1.9
		c1.5-1,3.9-2.2,6.5-2.2c4,0,5.7,2.7,5.7,6.8V62h-2.3l-0.2-2H200c-1.6,1.3-3.4,2.4-5.5,2.4C191.7,62.4,189.6,60.7,189.6,57.7z
		 M199.8,58v-4.6c-5.6,0.7-7.5,2-7.5,4.2c0,1.9,1.3,2.7,2.9,2.7C196.9,60.2,198.2,59.4,199.8,58z"/>
	<path class="st0" d="M207.9,58.7v-21h2.8v21.1c0,0.9,0.4,1.2,0.8,1.2c0.2,0,0.3,0,0.6-0.1l0.4,2.1c-0.4,0.2-0.9,0.2-1.6,0.2
		C208.7,62.4,207.9,61.1,207.9,58.7z"/>
	<path class="st0" d="M216.3,56V45.5h2.8v10.1c0,3.1,0.9,4.4,3.1,4.4c1.7,0,2.9-0.8,4.5-2.8V45.5h2.8V62h-2.3l-0.2-2.6h-0.1
		c-1.6,1.8-3.2,3-5.5,3C217.9,62.4,216.3,60.2,216.3,56z"/>
	<path class="st0" d="M233.8,53.8c0-5.5,3.7-8.7,8-8.7c2.2,0,3.7,0.9,4.8,2l-1.4,1.8c-1-0.9-2-1.5-3.3-1.5c-3,0-5.2,2.6-5.2,6.4
		c0,3.8,2.1,6.3,5.1,6.3c1.5,0,2.9-0.7,3.9-1.6l1.2,1.9c-1.5,1.3-3.4,2.1-5.4,2.1C237.2,62.4,233.8,59.3,233.8,53.8z"/>
	<path class="st0" d="M250,41.1l4.8-5.7l2,1.9l-5.3,5.2L250,41.1z M250.6,45.5h2.8V62h-2.8V45.5z"/>
	<path class="st0" d="M257.9,57.7c0-3.6,3.1-5.4,10.2-6.2c0-2.1-0.7-4.2-3.4-4.2c-1.9,0-3.7,0.9-5,1.8l-1.1-1.9
		c1.5-1,3.9-2.2,6.5-2.2c4,0,5.7,2.7,5.7,6.8V62h-2.3l-0.2-2h-0.1c-1.6,1.3-3.4,2.4-5.5,2.4C260,62.4,257.9,60.7,257.9,57.7z
		 M268.1,58v-4.6c-5.6,0.7-7.5,2-7.5,4.2c0,1.9,1.3,2.7,2.9,2.7C265.2,60.2,266.5,59.4,268.1,58z"/>
</g>
<g>
	<path class="st0" d="M309.7,61.7l3.2-2.3c1.6,2.8,3.6,4,6.2,4c3.9,0,5.8-2.2,5.8-7.6V30.9h4.5v25.4c0,6.2-2.8,11.1-9.8,11.1
		C315,67.4,311.8,65.4,309.7,61.7z"/>
	<path class="st0" d="M338.3,57V40.2h4.4v16.3c0,4.9,1.5,7,5,7c2.7,0,4.6-1.3,7.2-4.5V40.2h4.4v26.5h-3.7l-0.3-4.2h-0.1
		c-2.5,2.9-5.1,4.8-8.8,4.8C340.8,67.4,338.3,63.8,338.3,57z"/>
	<path class="st0" d="M368.3,40.2h3.7l0.4,3.8h0.1c2.5-2.5,5.3-4.5,8.9-4.5c5.6,0,8.1,3.6,8.1,10.4v16.8h-4.4V50.5
		c0-5-1.5-7.1-5-7.1c-2.7,0-4.6,1.4-7.3,4.1v19.3h-4.4V40.2z"/>
	<path class="st0" d="M398.9,58.5V43.8h-4v-3.4l4.2-0.2l0.5-7.5h3.7v7.5h7.2v3.6h-7.2v14.8c0,3.3,1,5.1,4.1,5.1c0.9,0,2.2-0.3,3-0.7
		l0.9,3.3c-1.5,0.5-3.3,1-4.9,1C400.9,67.4,398.9,63.8,398.9,58.5z"/>
	<path class="st0" d="M413.8,59.9c0-5.8,5-8.7,16.3-9.9c0-3.4-1.1-6.7-5.5-6.7c-3.1,0-5.9,1.4-8,2.8l-1.8-3.1
		c2.4-1.6,6.2-3.5,10.5-3.5c6.5,0,9.2,4.3,9.2,10.9v16.3h-3.7l-0.4-3.2h-0.1c-2.5,2.1-5.5,3.8-8.8,3.8
		C417.1,67.4,413.8,64.6,413.8,59.9z M430.1,60.3v-7.4c-8.9,1.1-12,3.3-12,6.7c0,3,2.1,4.3,4.7,4.3
		C425.4,63.8,427.5,62.6,430.1,60.3z"/>
	<path class="st0" d="M452,53.5c0-8.6,5.4-14,11.5-14c3.1,0,5.1,1.2,7.5,3.1l-0.2-4.6V27.8h4.4v38.9h-3.6l-0.4-3.1H471
		c-2.1,2.1-4.9,3.8-8.1,3.8C456.3,67.4,452,62.4,452,53.5z M470.8,60V46.1c-2.3-2-4.3-2.8-6.5-2.8c-4.3,0-7.7,4.1-7.7,10.2
		c0,6.4,2.6,10.2,7.3,10.2C466.4,63.7,468.5,62.4,470.8,60z"/>
	<path class="st0" d="M482.2,53.5c0-8.6,5.8-14,12-14c6.7,0,10.6,4.9,10.6,12.5c0,1-0.1,1.9-0.2,2.5h-17.9c0.3,5.7,3.8,9.3,8.8,9.3
		c2.6,0,4.7-0.8,6.6-2.1l1.6,2.9c-2.3,1.5-5.2,2.7-8.8,2.7C487.9,67.4,482.2,62.3,482.2,53.5z M500.8,51.3c0-5.3-2.4-8.2-6.6-8.2
		c-3.8,0-7.1,3-7.6,8.2H500.8z"/>
	<path class="st0" d="M530.1,30.9h5l12.2,35.9h-4.8l-3.4-10.9H526l-3.5,10.9h-4.6L530.1,30.9z M527.1,52.2h10.9l-1.7-5.5
		c-1.3-4.1-2.4-8-3.6-12.1h-0.2c-1.1,4.2-2.3,8.1-3.6,12.1L527.1,52.2z"/>
	<path class="st0" d="M551.9,40.2h3.7L556,44h0.1c2.5-2.5,5.3-4.5,8.9-4.5c5.6,0,8.1,3.6,8.1,10.4v16.8h-4.4V50.5c0-5-1.5-7.1-5-7.1
		c-2.7,0-4.6,1.4-7.3,4.1v19.3h-4.4V40.2z"/>
	<path class="st0" d="M579.9,53.5c0-8.6,5.4-14,11.5-14c3.1,0,5.1,1.2,7.5,3.1l-0.2-4.6V27.8h4.4v38.9h-3.6l-0.4-3.1h-0.1
		c-2.1,2.1-4.9,3.8-8.1,3.8C584.2,67.4,579.9,62.4,579.9,53.5z M598.6,60V46.1c-2.3-2-4.3-2.8-6.5-2.8c-4.3,0-7.7,4.1-7.7,10.2
		c0,6.4,2.6,10.2,7.3,10.2C594.2,63.7,596.4,62.4,598.6,60z"/>
	<path class="st0" d="M610.4,59.9c0-5.8,5-8.7,16.3-9.9c0-3.4-1.1-6.7-5.5-6.7c-3.1,0-5.9,1.4-8,2.8l-1.8-3.1
		c2.4-1.6,6.2-3.5,10.5-3.5c6.5,0,9.2,4.3,9.2,10.9v16.3h-3.7l-0.4-3.2H627c-2.5,2.1-5.5,3.8-8.8,3.8
		C613.7,67.4,610.4,64.6,610.4,59.9z M626.7,60.3v-7.4c-8.9,1.1-12,3.3-12,6.7c0,3,2.1,4.3,4.7,4.3
		C622.1,63.8,624.2,62.6,626.7,60.3z"/>
	<path class="st0" d="M639.7,61.5V27.8h4.4v33.9c0,1.4,0.6,1.9,1.3,1.9c0.2,0,0.4,0,0.9-0.1l0.6,3.4c-0.6,0.2-1.4,0.4-2.6,0.4
		C641,67.4,639.7,65.2,639.7,61.5z"/>
	<path class="st0" d="M653.2,57V40.2h4.4v16.3c0,4.9,1.5,7,5,7c2.7,0,4.6-1.3,7.2-4.5V40.2h4.4v26.5h-3.7l-0.3-4.2h-0.1
		c-2.5,2.9-5.1,4.8-8.8,4.8C655.7,67.4,653.2,63.8,653.2,57z"/>
	<path class="st0" d="M681.2,53.5c0-8.8,6-14,12.8-14c3.5,0,5.9,1.5,7.8,3.1l-2.3,2.9c-1.6-1.4-3.2-2.3-5.3-2.3
		c-4.8,0-8.4,4.2-8.4,10.3s3.3,10.2,8.2,10.2c2.4,0,4.6-1.1,6.3-2.6l2,3c-2.4,2.2-5.4,3.4-8.6,3.4C686.7,67.4,681.2,62.3,681.2,53.5
		z"/>
	<path class="st0" d="M707.3,33.2l7.7-9.1l3.1,3l-8.6,8.3L707.3,33.2z M708.1,40.2h4.4v26.5h-4.4V40.2z"/>
	<path class="st0" d="M719.9,59.9c0-5.8,5-8.7,16.3-9.9c0-3.4-1.1-6.7-5.5-6.7c-3.1,0-5.9,1.4-8,2.8L721,43
		c2.4-1.6,6.2-3.5,10.5-3.5c6.5,0,9.2,4.3,9.2,10.9v16.3H737l-0.4-3.2h-0.1c-2.5,2.1-5.5,3.8-8.8,3.8
		C723.2,67.4,719.9,64.6,719.9,59.9z M736.2,60.3v-7.4c-8.9,1.1-12,3.3-12,6.7c0,3,2.1,4.3,4.7,4.3
		C731.5,63.8,733.6,62.6,736.2,60.3z"/>
</g>
<g>
	<path class="st0" d="M859.7,58.7l2.7-1.9c1.4,2.4,3,3.4,5.2,3.4c3.3,0,4.9-1.9,4.9-6.4v-21h3.8v21.4c0,5.2-2.4,9.4-8.3,9.4
		C864.2,63.5,861.4,61.8,859.7,58.7z"/>
	<path class="st0" d="M883.8,54.8V40.6h3.7v13.7c0,4.2,1.2,5.9,4.2,5.9c2.3,0,3.9-1.1,6-3.8V40.6h3.7V63h-3.1l-0.3-3.5H898
		c-2.1,2.4-4.3,4-7.4,4C885.9,63.5,883.8,60.4,883.8,54.8z"/>
	<path class="st0" d="M909.1,40.6h3.1l0.3,3.2h0.1c2.1-2.1,4.4-3.8,7.5-3.8c4.7,0,6.8,3,6.8,8.8V63h-3.7V49.3c0-4.2-1.3-6-4.2-6
		c-2.3,0-3.9,1.2-6.1,3.4V63h-3.7V40.6z"/>
	<path class="st0" d="M934.9,56V43.7h-3.3v-2.8l3.5-0.2l0.5-6.3h3.1v6.3h6v3h-6v12.5c0,2.8,0.9,4.3,3.5,4.3c0.8,0,1.8-0.3,2.6-0.6
		l0.7,2.8c-1.3,0.4-2.8,0.8-4.1,0.8C936.5,63.5,934.9,60.5,934.9,56z"/>
	<path class="st0" d="M947.3,57.2c0-4.9,4.2-7.3,13.7-8.4c0-2.9-0.9-5.6-4.6-5.6c-2.6,0-4.9,1.2-6.7,2.4l-1.5-2.6
		c2.1-1.3,5.2-2.9,8.8-2.9c5.4,0,7.7,3.7,7.7,9.2V63h-3.1l-0.3-2.7h-0.1c-2.1,1.8-4.7,3.2-7.4,3.2C950.1,63.5,947.3,61.2,947.3,57.2
		z M961.1,57.5v-6.3c-7.5,0.9-10.1,2.8-10.1,5.6c0,2.6,1.7,3.6,4,3.6C957.1,60.5,958.9,59.5,961.1,57.5z"/>
	<path class="st0" d="M979.5,51.8c0-7.2,4.6-11.8,9.7-11.8c2.6,0,4.3,1,6.3,2.6l-0.2-3.9v-8.6h3.7V63h-3l-0.3-2.6h-0.1
		c-1.8,1.7-4.1,3.2-6.8,3.2C983.2,63.5,979.5,59.3,979.5,51.8z M995.4,57.3V45.5c-1.9-1.7-3.6-2.3-5.5-2.3c-3.6,0-6.5,3.5-6.5,8.6
		c0,5.4,2.2,8.6,6.2,8.6C991.6,60.4,993.5,59.3,995.4,57.3z"/>
	<path class="st0" d="M1005,51.8c0-7.2,4.9-11.8,10.1-11.8c5.7,0,8.9,4.1,8.9,10.5c0,0.8-0.1,1.6-0.2,2.1h-15.1
		c0.2,4.8,3.2,7.8,7.4,7.8c2.2,0,4-0.7,5.6-1.8l1.4,2.5c-2,1.3-4.4,2.3-7.4,2.3C1009.8,63.5,1005,59.2,1005,51.8z M1020.7,50
		c0-4.5-2.1-6.9-5.6-6.9c-3.2,0-6,2.6-6.4,6.9H1020.7z"/>
	<path class="st0" d="M1045.3,32.8h4.2l10.2,30.2h-4l-2.9-9.2h-11l-2.9,9.2h-3.9L1045.3,32.8z M1042.8,50.7h9.1l-1.4-4.6
		c-1.1-3.4-2.1-6.7-3-10.2h-0.2c-0.9,3.5-1.9,6.8-3,10.2L1042.8,50.7z"/>
	<path class="st0" d="M1063.7,40.6h3.1l0.3,3.2h0.1c2.1-2.1,4.4-3.8,7.5-3.8c4.7,0,6.8,3,6.8,8.8V63h-3.7V49.3c0-4.2-1.3-6-4.2-6
		c-2.3,0-3.9,1.2-6.1,3.4V63h-3.7V40.6z"/>
	<path class="st0" d="M1087.2,51.8c0-7.2,4.6-11.8,9.7-11.8c2.6,0,4.3,1,6.3,2.6l-0.2-3.9v-8.6h3.7V63h-3l-0.3-2.6h-0.1
		c-1.8,1.7-4.1,3.2-6.8,3.2C1090.8,63.5,1087.2,59.3,1087.2,51.8z M1103,57.3V45.5c-1.9-1.7-3.6-2.3-5.5-2.3c-3.6,0-6.5,3.5-6.5,8.6
		c0,5.4,2.2,8.6,6.2,8.6C1099.3,60.4,1101.1,59.3,1103,57.3z"/>
	<path class="st0" d="M1112.9,57.2c0-4.9,4.2-7.3,13.7-8.4c0-2.9-0.9-5.6-4.6-5.6c-2.6,0-4.9,1.2-6.7,2.4l-1.5-2.6
		c2.1-1.3,5.2-2.9,8.8-2.9c5.4,0,7.7,3.7,7.7,9.2V63h-3.1l-0.3-2.7h-0.1c-2.1,1.8-4.7,3.2-7.4,3.2
		C1115.7,63.5,1112.9,61.2,1112.9,57.2z M1126.7,57.5v-6.3c-7.5,0.9-10.1,2.8-10.1,5.6c0,2.6,1.7,3.6,4,3.6
		C1122.7,60.5,1124.5,59.5,1126.7,57.5z"/>
	<path class="st0" d="M1137.5,58.5V30.2h3.7v28.6c0,1.2,0.5,1.6,1.1,1.6c0.2,0,0.4,0,0.8-0.1l0.5,2.9c-0.5,0.2-1.2,0.3-2.2,0.3
		C1138.7,63.5,1137.5,61.7,1137.5,58.5z"/>
	<path class="st0" d="M1149,54.8V40.6h3.7v13.7c0,4.2,1.2,5.9,4.2,5.9c2.3,0,3.9-1.1,6-3.8V40.6h3.7V63h-3.1l-0.3-3.5h-0.1
		c-2.1,2.4-4.3,4-7.4,4C1151.1,63.5,1149,60.4,1149,54.8z"/>
	<path class="st0" d="M1172.6,51.8c0-7.4,5.1-11.8,10.8-11.8c2.9,0,4.9,1.2,6.5,2.6l-1.9,2.5c-1.3-1.2-2.7-2-4.4-2
		c-4.1,0-7,3.5-7,8.6c0,5.1,2.8,8.6,6.9,8.6c2.1,0,3.9-0.9,5.3-2.2l1.6,2.5c-2,1.8-4.6,2.8-7.2,2.8
		C1177.1,63.5,1172.6,59.2,1172.6,51.8z"/>
	<path class="st0" d="M1194.5,34.7l6.5-7.7l2.6,2.5l-7.2,7L1194.5,34.7z M1195.2,40.6h3.7V63h-3.7V40.6z"/>
	<path class="st0" d="M1205.1,57.2c0-4.9,4.2-7.3,13.7-8.4c0-2.9-0.9-5.6-4.6-5.6c-2.6,0-4.9,1.2-6.7,2.4l-1.5-2.6
		c2.1-1.3,5.2-2.9,8.8-2.9c5.4,0,7.7,3.7,7.7,9.2V63h-3.1l-0.3-2.7h-0.1c-2.1,1.8-4.7,3.2-7.4,3.2
		C1207.9,63.5,1205.1,61.2,1205.1,57.2z M1218.9,57.5v-6.3c-7.5,0.9-10.1,2.8-10.1,5.6c0,2.6,1.7,3.6,4,3.6
		C1214.9,60.5,1216.7,59.5,1218.9,57.5z"/>
</g>
</svg>
