<svg id="Capa_1" data-name="Capa 1" xmlns="http://www.w3.org/2000/svg" xmlns:xlink="http://www.w3.org/1999/xlink" viewBox="0 0 206.89 35.86"><defs><style>.cls-1,.cls-2{fill:none;}.cls-2{clip-rule:evenodd;}.cls-3{clip-path:url(#clip-path);}.cls-4{clip-path:url(#clip-path-2);}.cls-5{fill:#fff;}.cls-6{clip-path:url(#clip-path-3);}.cls-7{clip-path:url(#clip-path-5);}.cls-8{clip-path:url(#clip-path-7);}.cls-9{clip-path:url(#clip-path-9);}.cls-10{clip-path:url(#clip-path-11);}.cls-11{clip-path:url(#clip-path-13);}.cls-12{clip-path:url(#clip-path-15);}.cls-13{clip-path:url(#clip-path-17);}.cls-14{clip-path:url(#clip-path-19);}</style><clipPath id="clip-path" transform="translate(5 4.63)"><path class="cls-1" d="M84.74,26.23V14.61h1.79v-1.8H81.14v1.8h1.8V26.23Zm-6.8-7.09-2.81-3.46V26.23h-1.8V14.61H71.92v-1.8h3.21l2.81,3.49V12.81h1.79V26.23H77.94Zm-9.23-6.33V23a1.4,1.4,0,1,1-2.8,0V12.81H62.7v1.8h1.41V23a3.21,3.21,0,0,0,6.41,0V12.81ZM54.87,23a3.21,3.21,0,0,0,6.4,0V12.81h-3.2v1.8h1.4V23a1.41,1.41,0,0,1-2.81,0Z"/></clipPath><clipPath id="clip-path-2" transform="translate(5 4.63)"><rect class="cls-1" width="197" height="27"/></clipPath><clipPath id="clip-path-3" transform="translate(5 4.63)"><path class="cls-2" d="M91.58,14.61l-.66,4.2H93l-.61-4a.27.27,0,0,0-.27-.24Zm-3.63,0v-1.8h4.19a2,2,0,0,1,2,1.74L96,26.22H94.17l-.88-5.63H90.66l-.88,5.64H88l1.8-11.62Z"/></clipPath><clipPath id="clip-path-5" transform="translate(5 4.63)"><polygon class="cls-1" points="111.68 12.81 111.68 14.61 113.11 14.61 113.11 26.22 118.86 26.22 118.5 24.42 114.9 24.42 114.9 20.6 116.7 20.6 116.7 18.8 114.9 18.8 114.9 14.61 118.5 14.61 118.5 12.81 111.68 12.81"/></clipPath><clipPath id="clip-path-7" transform="translate(5 4.63)"><path class="cls-2" d="M192.49,14.61l-.66,4.2h2.08l-.61-4a.27.27,0,0,0-.27-.24Zm-3.63,0v-1.8h4.19a2,2,0,0,1,2,1.74l1.81,11.67h-1.81l-.89-5.63h-2.62l-.89,5.64h-1.82l1.8-11.62ZM108,26.22a3.18,3.18,0,0,0,3.18-3.2V16a3.2,3.2,0,0,0-3.2-3.2h-4.61v1.8h1.4V26.2H108Zm-1.42-1.8V14.61H108a1.37,1.37,0,0,1,1,.41,1.4,1.4,0,0,1,.4,1v7a1.4,1.4,0,0,1-1.4,1.4h-1.4Z"/></clipPath><clipPath id="clip-path-9" transform="translate(5 4.63)"><polygon class="cls-1" points="140.82 19.14 138.01 15.68 138.01 26.23 136.21 26.23 136.21 14.61 134.8 14.61 134.8 12.81 138.01 12.81 140.82 16.3 140.82 12.81 142.61 12.81 142.61 26.23 140.82 26.23 140.82 19.14"/></clipPath><clipPath id="clip-path-11" transform="translate(5 4.63)"><path class="cls-2" d="M157.41,14.61l-.65,4.2h2.08l-.62-4a.26.26,0,0,0-.26-.24Zm-3.63,0v-1.8H158a2,2,0,0,1,2,1.75l1.82,11.67H160l-.88-5.63h-2.63l-.89,5.63h-1.82l1.8-11.62Zm-6.53,9.81V14.61h1.43a1.39,1.39,0,0,1,1,.41,1.35,1.35,0,0,1,.39,1v7a1.4,1.4,0,0,1-1.4,1.4h-1.4Zm1.43,1.8a3.19,3.19,0,0,0,2.25-.94,3.13,3.13,0,0,0,.92-2.26V16a3.2,3.2,0,0,0-3.2-3.2H144v1.8h1.41V26.2h3.23ZM129.91,14.61l-.65,4.2h2.08l-.61-4a.27.27,0,0,0-.27-.24Zm-3.63,0v-1.8h4.18a2,2,0,0,1,2,1.74l1.82,11.67h-1.82l-.88-5.63H129l-.88,5.63h-1.83l1.81-11.62Z"/></clipPath><clipPath id="clip-path-13" transform="translate(5 4.63)"><path class="cls-1" d="M162.23,12.81v1.8h1.42V26.22h5.76l-.36-1.8h-3.6V14.61h0v-1.8ZM187,26.22V12.81h-3.23v1.8h1.41V26.22Zm-4.66-11.61h-1.43A1.38,1.38,0,0,0,179.5,16v7a1.41,1.41,0,0,0,1.41,1.4h1.4l.38,1.8h-1.81a3.24,3.24,0,0,1-2.25-.95A3.18,3.18,0,0,1,177.7,23V16a3.21,3.21,0,0,1,3.21-3.2h1.4l0,1.8Zm-8-1.8V23a1.4,1.4,0,1,1-2.8,0V12.81h-3.21v1.8h1.4V23a3.21,3.21,0,0,0,6.41,0V12.81Z"/></clipPath><clipPath id="clip-path-15" transform="translate(5 4.63)"><polygon class="cls-1" points="27.57 25.98 20.83 25.98 24.2 15 27.57 25.98"/></clipPath><clipPath id="clip-path-17" transform="translate(5 4.63)"><path class="cls-1" d="M24.21,11.35A22.72,22.72,0,0,1,40.27,18a25.07,25.07,0,0,1,2.28,2.65,19.45,19.45,0,0,0-36.69,0A22.87,22.87,0,0,1,24.21,11.35Z"/></clipPath><clipPath id="clip-path-19" transform="translate(5 4.63)"><path class="cls-1" d="M24.21,4a29.25,29.25,0,0,1,20.67,8.57,29.87,29.87,0,0,1,3.52,4.25,26,26,0,0,0-48.4,0A29.39,29.39,0,0,1,24.21,4Z"/></clipPath></defs><title>logo Junta blanco</title><g class="cls-3"><g class="cls-4"><rect class="cls-5" x="54.87" y="12.44" width="41.66" height="23.42"/></g></g><g class="cls-6"><g class="cls-4"><rect class="cls-5" x="87.95" y="12.44" width="18.03" height="23.42"/></g></g><g class="cls-7"><g class="cls-4"><rect class="cls-5" x="111.68" y="12.44" width="17.18" height="23.4"/></g></g><g class="cls-8"><g class="cls-4"><rect class="cls-5" x="103.41" y="12.43" width="103.48" height="23.43"/></g></g><g class="cls-9"><g class="cls-4"><rect class="cls-5" x="134.8" y="12.44" width="17.82" height="23.42"/></g></g><g class="cls-10"><g class="cls-4"><rect class="cls-5" x="126.28" y="12.44" width="45.53" height="23.43"/></g></g><g class="cls-11"><g class="cls-4"><rect class="cls-5" x="162.23" y="12.44" width="34.74" height="23.42"/></g></g><g class="cls-12"><g class="cls-4"><rect class="cls-5" x="20.83" y="14.63" width="16.75" height="20.98"/></g></g><g class="cls-13"><g class="cls-4"><rect class="cls-5" x="5.86" y="7.31" width="46.69" height="22.98"/></g></g><g class="cls-14"><g class="cls-4"><rect class="cls-5" width="58.4" height="26.46"/></g></g></svg>